<svg width="127" height="127" viewBox="0 0 127 127" fill="none" xmlns="http://www.w3.org/2000/svg">
<rect width="126.667" height="126.667" fill="white"/>
<path d="M6.3355 35.8867H2.11328V40.1089H6.3355V35.8867Z" fill="black"/>
<path d="M6.3355 52.7773H2.11328V56.9996H6.3355V52.7773Z" fill="black"/>
<path d="M6.3355 57H2.11328V61.2222H6.3355V57Z" fill="black"/>
<path d="M6.3355 65.4414H2.11328V69.6636H6.3355V65.4414Z" fill="black"/>
<path d="M6.3355 73.8867H2.11328V78.1089H6.3355V73.8867Z" fill="black"/>
<path d="M6.3355 78.1094H2.11328V82.3316H6.3355V78.1094Z" fill="black"/>
<path d="M6.3355 86.5547H2.11328V90.7769H6.3355V86.5547Z" fill="black"/>
<path d="M10.5582 40.1094H6.33594V44.3316H10.5582V40.1094Z" fill="black"/>
<path d="M10.5582 65.4414H6.33594V69.6636H10.5582V65.4414Z" fill="black"/>
<path d="M10.5582 69.6641H6.33594V73.8863H10.5582V69.6641Z" fill="black"/>
<path d="M10.5582 82.332H6.33594V86.5543H10.5582V82.332Z" fill="black"/>
<path d="M14.7769 40.1094H10.5547V44.3316H14.7769V40.1094Z" fill="black"/>
<path d="M14.7769 52.7773H10.5547V56.9996H14.7769V52.7773Z" fill="black"/>
<path d="M14.7769 65.4414H10.5547V69.6636H14.7769V65.4414Z" fill="black"/>
<path d="M14.7769 69.6641H10.5547V73.8863H14.7769V69.6641Z" fill="black"/>
<path d="M14.7769 82.332H10.5547V86.5543H14.7769V82.332Z" fill="black"/>
<path d="M14.7769 86.5547H10.5547V90.7769H14.7769V86.5547Z" fill="black"/>
<path d="M19.0035 44.332H14.7812V48.5543H19.0035V44.332Z" fill="black"/>
<path d="M19.0035 48.5547H14.7812V52.7769H19.0035V48.5547Z" fill="black"/>
<path d="M19.0035 52.7773H14.7812V56.9996H19.0035V52.7773Z" fill="black"/>
<path d="M19.0035 69.6641H14.7812V73.8863H19.0035V69.6641Z" fill="black"/>
<path d="M19.0035 73.8867H14.7812V78.1089H19.0035V73.8867Z" fill="black"/>
<path d="M19.0035 82.332H14.7812V86.5543H19.0035V82.332Z" fill="black"/>
<path d="M23.2222 35.8867H19V40.1089H23.2222V35.8867Z" fill="black"/>
<path d="M23.2222 44.332H19V48.5543H23.2222V44.332Z" fill="black"/>
<path d="M23.2222 57H19V61.2222H23.2222V57Z" fill="black"/>
<path d="M23.2222 61.2188H19V65.441H23.2222V61.2188Z" fill="black"/>
<path d="M23.2222 65.4414H19V69.6636H23.2222V65.4414Z" fill="black"/>
<path d="M23.2222 69.6641H19V73.8863H23.2222V69.6641Z" fill="black"/>
<path d="M23.2222 82.332H19V86.5543H23.2222V82.332Z" fill="black"/>
<path d="M27.4449 35.8867H23.2227V40.1089H27.4449V35.8867Z" fill="black"/>
<path d="M27.4449 40.1094H23.2227V44.3316H27.4449V40.1094Z" fill="black"/>
<path d="M27.4449 44.332H23.2227V48.5543H27.4449V44.332Z" fill="black"/>
<path d="M27.4449 52.7773H23.2227V56.9996H27.4449V52.7773Z" fill="black"/>
<path d="M27.4449 57H23.2227V61.2222H27.4449V57Z" fill="black"/>
<path d="M27.4449 65.4414H23.2227V69.6636H27.4449V65.4414Z" fill="black"/>
<path d="M27.4449 69.6641H23.2227V73.8863H27.4449V69.6641Z" fill="black"/>
<path d="M27.4449 78.1094H23.2227V82.3316H27.4449V78.1094Z" fill="black"/>
<path d="M27.4449 86.5547H23.2227V90.7769H27.4449V86.5547Z" fill="black"/>
<path d="M31.6714 35.8867H27.4492V40.1089H31.6714V35.8867Z" fill="black"/>
<path d="M31.6714 44.332H27.4492V48.5543H31.6714V44.332Z" fill="black"/>
<path d="M31.6714 52.7773H27.4492V56.9996H31.6714V52.7773Z" fill="black"/>
<path d="M31.6714 61.2188H27.4492V65.441H31.6714V61.2188Z" fill="black"/>
<path d="M31.6714 69.6641H27.4492V73.8863H31.6714V69.6641Z" fill="black"/>
<path d="M31.6714 78.1094H27.4492V82.3316H31.6714V78.1094Z" fill="black"/>
<path d="M31.6714 86.5547H27.4492V90.7769H31.6714V86.5547Z" fill="black"/>
<path d="M35.8902 44.332H31.668V48.5543H35.8902V44.332Z" fill="black"/>
<path d="M35.8902 48.5547H31.668V52.7769H35.8902V48.5547Z" fill="black"/>
<path d="M35.8902 61.2188H31.668V65.441H35.8902V61.2188Z" fill="black"/>
<path d="M35.8902 69.6641H31.668V73.8863H35.8902V69.6641Z" fill="black"/>
<path d="M35.8902 86.5547H31.668V90.7769H35.8902V86.5547Z" fill="black"/>
<path d="M40.1128 6.33203H35.8906V10.5543H40.1128V6.33203Z" fill="black"/>
<path d="M40.1128 10.5547H35.8906V14.7769H40.1128V10.5547Z" fill="black"/>
<path d="M40.1128 14.7773H35.8906V18.9996H40.1128V14.7773Z" fill="black"/>
<path d="M40.1128 19H35.8906V23.2222H40.1128V19Z" fill="black"/>
<path d="M40.1128 23.2188H35.8906V27.441H40.1128V23.2188Z" fill="black"/>
<path d="M40.1128 27.4414H35.8906V31.6636H40.1128V27.4414Z" fill="black"/>
<path d="M40.1128 31.6641H35.8906V35.8863H40.1128V31.6641Z" fill="black"/>
<path d="M40.1128 44.332H35.8906V48.5543H40.1128V44.332Z" fill="black"/>
<path d="M40.1128 61.2188H35.8906V65.441H40.1128V61.2188Z" fill="black"/>
<path d="M40.1128 65.4414H35.8906V69.6636H40.1128V65.4414Z" fill="black"/>
<path d="M40.1128 69.6641H35.8906V73.8863H40.1128V69.6641Z" fill="black"/>
<path d="M40.1128 78.1094H35.8906V82.3316H40.1128V78.1094Z" fill="black"/>
<path d="M40.1128 99.2188H35.8906V103.441H40.1128V99.2188Z" fill="black"/>
<path d="M40.1128 103.441H35.8906V107.664H40.1128V103.441Z" fill="black"/>
<path d="M40.1128 120.332H35.8906V124.554H40.1128V120.332Z" fill="black"/>
<path d="M44.3316 6.33203H40.1094V10.5543H44.3316V6.33203Z" fill="black"/>
<path d="M44.3316 14.7773H40.1094V18.9996H44.3316V14.7773Z" fill="black"/>
<path d="M44.3316 19H40.1094V23.2222H44.3316V19Z" fill="black"/>
<path d="M44.3316 31.6641H40.1094V35.8863H44.3316V31.6641Z" fill="black"/>
<path d="M44.3316 35.8867H40.1094V40.1089H44.3316V35.8867Z" fill="black"/>
<path d="M44.3316 48.5547H40.1094V52.7769H44.3316V48.5547Z" fill="black"/>
<path d="M44.3316 65.4414H40.1094V69.6636H44.3316V65.4414Z" fill="black"/>
<path d="M44.3316 69.6641H40.1094V73.8863H44.3316V69.6641Z" fill="black"/>
<path d="M44.3316 95H40.1094V99.2222H44.3316V95Z" fill="black"/>
<path d="M44.3316 103.441H40.1094V107.664H44.3316V103.441Z" fill="black"/>
<path d="M44.3316 107.664H40.1094V111.886H44.3316V107.664Z" fill="black"/>
<path d="M44.3316 111.887H40.1094V116.109H44.3316V111.887Z" fill="black"/>
<path d="M44.3316 120.332H40.1094V124.554H44.3316V120.332Z" fill="black"/>
<path d="M48.5582 6.33203H44.3359V10.5543H48.5582V6.33203Z" fill="black"/>
<path d="M48.5582 10.5547H44.3359V14.7769H48.5582V10.5547Z" fill="black"/>
<path d="M48.5582 14.7773H44.3359V18.9996H48.5582V14.7773Z" fill="black"/>
<path d="M48.5582 23.2188H44.3359V27.441H48.5582V23.2188Z" fill="black"/>
<path d="M48.5582 27.4414H44.3359V31.6636H48.5582V27.4414Z" fill="black"/>
<path d="M48.5582 31.6641H44.3359V35.8863H48.5582V31.6641Z" fill="black"/>
<path d="M48.5582 35.8867H44.3359V40.1089H48.5582V35.8867Z" fill="black"/>
<path d="M48.5582 40.1094H44.3359V44.3316H48.5582V40.1094Z" fill="black"/>
<path d="M48.5582 44.332H44.3359V48.5543H48.5582V44.332Z" fill="black"/>
<path d="M48.5582 48.5547H44.3359V52.7769H48.5582V48.5547Z" fill="black"/>
<path d="M48.5582 52.7773H44.3359V56.9996H48.5582V52.7773Z" fill="black"/>
<path d="M48.5582 57H44.3359V61.2222H48.5582V57Z" fill="black"/>
<path d="M48.5582 61.2188H44.3359V65.441H48.5582V61.2188Z" fill="black"/>
<path d="M48.5582 78.1094H44.3359V82.3316H48.5582V78.1094Z" fill="black"/>
<path d="M48.5582 86.5547H44.3359V90.7769H48.5582V86.5547Z" fill="black"/>
<path d="M48.5582 90.7773H44.3359V94.9996H48.5582V90.7773Z" fill="black"/>
<path d="M48.5582 95H44.3359V99.2222H48.5582V95Z" fill="black"/>
<path d="M48.5582 99.2188H44.3359V103.441H48.5582V99.2188Z" fill="black"/>
<path d="M48.5582 107.664H44.3359V111.886H48.5582V107.664Z" fill="black"/>
<path d="M48.5582 111.887H44.3359V116.109H48.5582V111.887Z" fill="black"/>
<path d="M52.7808 2.10938H48.5586V6.3316H52.7808V2.10938Z" fill="black"/>
<path d="M52.7808 6.33203H48.5586V10.5543H52.7808V6.33203Z" fill="black"/>
<path d="M52.7808 35.8867H48.5586V40.1089H52.7808V35.8867Z" fill="black"/>
<path d="M52.7808 40.1094H48.5586V44.3316H52.7808V40.1094Z" fill="black"/>
<path d="M52.7808 44.332H48.5586V48.5543H52.7808V44.332Z" fill="black"/>
<path d="M52.7808 57H48.5586V61.2222H52.7808V57Z" fill="black"/>
<path d="M52.7808 90.7773H48.5586V94.9996H52.7808V90.7773Z" fill="black"/>
<path d="M52.7808 95H48.5586V99.2222H52.7808V95Z" fill="black"/>
<path d="M52.7808 103.441H48.5586V107.664H52.7808V103.441Z" fill="black"/>
<path d="M52.7808 107.664H48.5586V111.886H52.7808V107.664Z" fill="black"/>
<path d="M52.7808 116.109H48.5586V120.332H52.7808V116.109Z" fill="black"/>
<path d="M56.9996 6.33203H52.7773V10.5543H56.9996V6.33203Z" fill="black"/>
<path d="M56.9996 14.7773H52.7773V18.9996H56.9996V14.7773Z" fill="black"/>
<path d="M56.9996 19H52.7773V23.2222H56.9996V19Z" fill="black"/>
<path d="M56.9996 27.4414H52.7773V31.6636H56.9996V27.4414Z" fill="black"/>
<path d="M56.9996 31.6641H52.7773V35.8863H56.9996V31.6641Z" fill="black"/>
<path d="M56.9996 40.1094H52.7773V44.3316H56.9996V40.1094Z" fill="black"/>
<path d="M56.9996 48.5547H52.7773V52.7769H56.9996V48.5547Z" fill="black"/>
<path d="M56.9996 65.4414H52.7773V69.6636H56.9996V65.4414Z" fill="black"/>
<path d="M56.9996 69.6641H52.7773V73.8863H56.9996V69.6641Z" fill="black"/>
<path d="M56.9996 73.8867H52.7773V78.1089H56.9996V73.8867Z" fill="black"/>
<path d="M56.9996 82.332H52.7773V86.5543H56.9996V82.332Z" fill="black"/>
<path d="M56.9996 90.7773H52.7773V94.9996H56.9996V90.7773Z" fill="black"/>
<path d="M56.9996 99.2188H52.7773V103.441H56.9996V99.2188Z" fill="black"/>
<path d="M56.9996 116.109H52.7773V120.332H56.9996V116.109Z" fill="black"/>
<path d="M56.9996 120.332H52.7773V124.554H56.9996V120.332Z" fill="black"/>
<path d="M61.2261 2.10938H57.0039V6.3316H61.2261V2.10938Z" fill="black"/>
<path d="M61.2261 10.5547H57.0039V14.7769H61.2261V10.5547Z" fill="black"/>
<path d="M61.2261 14.7773H57.0039V18.9996H61.2261V14.7773Z" fill="black"/>
<path d="M61.2261 19H57.0039V23.2222H61.2261V19Z" fill="black"/>
<path d="M61.2261 23.2188H57.0039V27.441H61.2261V23.2188Z" fill="black"/>
<path d="M61.2261 57H57.0039V61.2222H61.2261V57Z" fill="black"/>
<path d="M61.2261 61.2188H57.0039V65.441H61.2261V61.2188Z" fill="black"/>
<path d="M61.2261 65.4414H57.0039V69.6636H61.2261V65.4414Z" fill="black"/>
<path d="M61.2261 69.6641H57.0039V73.8863H61.2261V69.6641Z" fill="black"/>
<path d="M61.2261 73.8867H57.0039V78.1089H61.2261V73.8867Z" fill="black"/>
<path d="M61.2261 82.332H57.0039V86.5543H61.2261V82.332Z" fill="black"/>
<path d="M61.2261 86.5547H57.0039V90.7769H61.2261V86.5547Z" fill="black"/>
<path d="M61.2261 90.7773H57.0039V94.9996H61.2261V90.7773Z" fill="black"/>
<path d="M61.2261 95H57.0039V99.2222H61.2261V95Z" fill="black"/>
<path d="M61.2261 103.441H57.0039V107.664H61.2261V103.441Z" fill="black"/>
<path d="M61.2261 107.664H57.0039V111.886H61.2261V107.664Z" fill="black"/>
<path d="M61.2261 116.109H57.0039V120.332H61.2261V116.109Z" fill="black"/>
<path d="M61.2261 120.332H57.0039V124.554H61.2261V120.332Z" fill="black"/>
<path d="M65.4449 6.33203H61.2227V10.5543H65.4449V6.33203Z" fill="black"/>
<path d="M65.4449 10.5547H61.2227V14.7769H65.4449V10.5547Z" fill="black"/>
<path d="M65.4449 19H61.2227V23.2222H65.4449V19Z" fill="black"/>
<path d="M65.4449 23.2188H61.2227V27.441H65.4449V23.2188Z" fill="black"/>
<path d="M65.4449 27.4414H61.2227V31.6636H65.4449V27.4414Z" fill="black"/>
<path d="M65.4449 31.6641H61.2227V35.8863H65.4449V31.6641Z" fill="black"/>
<path d="M65.4449 35.8867H61.2227V40.1089H65.4449V35.8867Z" fill="black"/>
<path d="M65.4449 40.1094H61.2227V44.3316H65.4449V40.1094Z" fill="black"/>
<path d="M65.4449 44.332H61.2227V48.5543H65.4449V44.332Z" fill="black"/>
<path d="M65.4449 48.5547H61.2227V52.7769H65.4449V48.5547Z" fill="black"/>
<path d="M65.4449 52.7773H61.2227V56.9996H65.4449V52.7773Z" fill="black"/>
<path d="M65.4449 61.2188H61.2227V65.441H65.4449V61.2188Z" fill="black"/>
<path d="M65.4449 65.4414H61.2227V69.6636H65.4449V65.4414Z" fill="black"/>
<path d="M65.4449 73.8867H61.2227V78.1089H65.4449V73.8867Z" fill="black"/>
<path d="M65.4449 86.5547H61.2227V90.7769H65.4449V86.5547Z" fill="black"/>
<path d="M65.4449 90.7773H61.2227V94.9996H65.4449V90.7773Z" fill="black"/>
<path d="M65.4449 99.2188H61.2227V103.441H65.4449V99.2188Z" fill="black"/>
<path d="M65.4449 116.109H61.2227V120.332H65.4449V116.109Z" fill="black"/>
<path d="M69.6675 6.33203H65.4453V10.5543H69.6675V6.33203Z" fill="black"/>
<path d="M69.6675 31.6641H65.4453V35.8863H69.6675V31.6641Z" fill="black"/>
<path d="M69.6675 35.8867H65.4453V40.1089H69.6675V35.8867Z" fill="black"/>
<path d="M69.6675 40.1094H65.4453V44.3316H69.6675V40.1094Z" fill="black"/>
<path d="M69.6675 52.7773H65.4453V56.9996H69.6675V52.7773Z" fill="black"/>
<path d="M69.6675 61.2188H65.4453V65.441H69.6675V61.2188Z" fill="black"/>
<path d="M69.6675 73.8867H65.4453V78.1089H69.6675V73.8867Z" fill="black"/>
<path d="M69.6675 78.1094H65.4453V82.3316H69.6675V78.1094Z" fill="black"/>
<path d="M69.6675 86.5547H65.4453V90.7769H69.6675V86.5547Z" fill="black"/>
<path d="M69.6675 90.7773H65.4453V94.9996H69.6675V90.7773Z" fill="black"/>
<path d="M69.6675 103.441H65.4453V107.664H69.6675V103.441Z" fill="black"/>
<path d="M69.6675 107.664H65.4453V111.886H69.6675V107.664Z" fill="black"/>
<path d="M73.8941 2.10938H69.6719V6.3316H73.8941V2.10938Z" fill="black"/>
<path d="M73.8941 14.7773H69.6719V18.9996H73.8941V14.7773Z" fill="black"/>
<path d="M73.8941 19H69.6719V23.2222H73.8941V19Z" fill="black"/>
<path d="M73.8941 23.2188H69.6719V27.441H73.8941V23.2188Z" fill="black"/>
<path d="M73.8941 27.4414H69.6719V31.6636H73.8941V27.4414Z" fill="black"/>
<path d="M73.8941 31.6641H69.6719V35.8863H73.8941V31.6641Z" fill="black"/>
<path d="M73.8941 35.8867H69.6719V40.1089H73.8941V35.8867Z" fill="black"/>
<path d="M73.8941 48.5547H69.6719V52.7769H73.8941V48.5547Z" fill="black"/>
<path d="M73.8941 57H69.6719V61.2222H73.8941V57Z" fill="black"/>
<path d="M73.8941 69.6641H69.6719V73.8863H73.8941V69.6641Z" fill="black"/>
<path d="M73.8941 82.332H69.6719V86.5543H73.8941V82.332Z" fill="black"/>
<path d="M73.8941 86.5547H69.6719V90.7769H73.8941V86.5547Z" fill="black"/>
<path d="M73.8941 107.664H69.6719V111.886H73.8941V107.664Z" fill="black"/>
<path d="M73.8941 111.887H69.6719V116.109H73.8941V111.887Z" fill="black"/>
<path d="M73.8941 120.332H69.6719V124.554H73.8941V120.332Z" fill="black"/>
<path d="M78.1128 2.10938H73.8906V6.3316H78.1128V2.10938Z" fill="black"/>
<path d="M78.1128 6.33203H73.8906V10.5543H78.1128V6.33203Z" fill="black"/>
<path d="M78.1128 10.5547H73.8906V14.7769H78.1128V10.5547Z" fill="black"/>
<path d="M78.1128 14.7773H73.8906V18.9996H78.1128V14.7773Z" fill="black"/>
<path d="M78.1128 19H73.8906V23.2222H78.1128V19Z" fill="black"/>
<path d="M78.1128 31.6641H73.8906V35.8863H78.1128V31.6641Z" fill="black"/>
<path d="M78.1128 35.8867H73.8906V40.1089H78.1128V35.8867Z" fill="black"/>
<path d="M78.1128 40.1094H73.8906V44.3316H78.1128V40.1094Z" fill="black"/>
<path d="M78.1128 44.332H73.8906V48.5543H78.1128V44.332Z" fill="black"/>
<path d="M78.1128 52.7773H73.8906V56.9996H78.1128V52.7773Z" fill="black"/>
<path d="M78.1128 65.4414H73.8906V69.6636H78.1128V65.4414Z" fill="black"/>
<path d="M78.1128 78.1094H73.8906V82.3316H78.1128V78.1094Z" fill="black"/>
<path d="M78.1128 82.332H73.8906V86.5543H78.1128V82.332Z" fill="black"/>
<path d="M78.1128 90.7773H73.8906V94.9996H78.1128V90.7773Z" fill="black"/>
<path d="M78.1128 99.2188H73.8906V103.441H78.1128V99.2188Z" fill="black"/>
<path d="M78.1128 103.441H73.8906V107.664H78.1128V103.441Z" fill="black"/>
<path d="M78.1128 111.887H73.8906V116.109H78.1128V111.887Z" fill="black"/>
<path d="M78.1128 116.109H73.8906V120.332H78.1128V116.109Z" fill="black"/>
<path d="M78.1128 120.332H73.8906V124.554H78.1128V120.332Z" fill="black"/>
<path d="M82.3355 2.10938H78.1133V6.3316H82.3355V2.10938Z" fill="black"/>
<path d="M82.3355 14.7773H78.1133V18.9996H82.3355V14.7773Z" fill="black"/>
<path d="M82.3355 27.4414H78.1133V31.6636H82.3355V27.4414Z" fill="black"/>
<path d="M82.3355 35.8867H78.1133V40.1089H82.3355V35.8867Z" fill="black"/>
<path d="M82.3355 44.332H78.1133V48.5543H82.3355V44.332Z" fill="black"/>
<path d="M82.3355 48.5547H78.1133V52.7769H82.3355V48.5547Z" fill="black"/>
<path d="M82.3355 52.7773H78.1133V56.9996H82.3355V52.7773Z" fill="black"/>
<path d="M82.3355 57H78.1133V61.2222H82.3355V57Z" fill="black"/>
<path d="M82.3355 65.4414H78.1133V69.6636H82.3355V65.4414Z" fill="black"/>
<path d="M82.3355 69.6641H78.1133V73.8863H82.3355V69.6641Z" fill="black"/>
<path d="M82.3355 73.8867H78.1133V78.1089H82.3355V73.8867Z" fill="black"/>
<path d="M82.3355 78.1094H78.1133V82.3316H82.3355V78.1094Z" fill="black"/>
<path d="M82.3355 86.5547H78.1133V90.7769H82.3355V86.5547Z" fill="black"/>
<path d="M82.3355 95H78.1133V99.2222H82.3355V95Z" fill="black"/>
<path d="M82.3355 99.2188H78.1133V103.441H82.3355V99.2188Z" fill="black"/>
<path d="M82.3355 103.441H78.1133V107.664H82.3355V103.441Z" fill="black"/>
<path d="M86.5543 2.10938H82.332V6.3316H86.5543V2.10938Z" fill="black"/>
<path d="M86.5543 10.5547H82.332V14.7769H86.5543V10.5547Z" fill="black"/>
<path d="M86.5543 23.2188H82.332V27.441H86.5543V23.2188Z" fill="black"/>
<path d="M86.5543 44.332H82.332V48.5543H86.5543V44.332Z" fill="black"/>
<path d="M86.5543 48.5547H82.332V52.7769H86.5543V48.5547Z" fill="black"/>
<path d="M86.5543 52.7773H82.332V56.9996H86.5543V52.7773Z" fill="black"/>
<path d="M86.5543 57H82.332V61.2222H86.5543V57Z" fill="black"/>
<path d="M86.5543 65.4414H82.332V69.6636H86.5543V65.4414Z" fill="black"/>
<path d="M86.5543 78.1094H82.332V82.3316H86.5543V78.1094Z" fill="black"/>
<path d="M86.5543 86.5547H82.332V90.7769H86.5543V86.5547Z" fill="black"/>
<path d="M86.5543 95H82.332V99.2222H86.5543V95Z" fill="black"/>
<path d="M86.5543 107.664H82.332V111.886H86.5543V107.664Z" fill="black"/>
<path d="M86.5543 116.109H82.332V120.332H86.5543V116.109Z" fill="black"/>
<path d="M86.5543 120.332H82.332V124.554H86.5543V120.332Z" fill="black"/>
<path d="M90.7808 2.10938H86.5586V6.3316H90.7808V2.10938Z" fill="black"/>
<path d="M90.7808 14.7773H86.5586V18.9996H90.7808V14.7773Z" fill="black"/>
<path d="M90.7808 19H86.5586V23.2222H90.7808V19Z" fill="black"/>
<path d="M90.7808 23.2188H86.5586V27.441H90.7808V23.2188Z" fill="black"/>
<path d="M90.7808 27.4414H86.5586V31.6636H90.7808V27.4414Z" fill="black"/>
<path d="M90.7808 31.6641H86.5586V35.8863H90.7808V31.6641Z" fill="black"/>
<path d="M90.7808 35.8867H86.5586V40.1089H90.7808V35.8867Z" fill="black"/>
<path d="M90.7808 40.1094H86.5586V44.3316H90.7808V40.1094Z" fill="black"/>
<path d="M90.7808 44.332H86.5586V48.5543H90.7808V44.332Z" fill="black"/>
<path d="M90.7808 52.7773H86.5586V56.9996H90.7808V52.7773Z" fill="black"/>
<path d="M90.7808 61.2188H86.5586V65.441H90.7808V61.2188Z" fill="black"/>
<path d="M90.7808 65.4414H86.5586V69.6636H90.7808V65.4414Z" fill="black"/>
<path d="M90.7808 73.8867H86.5586V78.1089H90.7808V73.8867Z" fill="black"/>
<path d="M90.7808 78.1094H86.5586V82.3316H90.7808V78.1094Z" fill="black"/>
<path d="M90.7808 86.5547H86.5586V90.7769H90.7808V86.5547Z" fill="black"/>
<path d="M90.7808 90.7773H86.5586V94.9996H90.7808V90.7773Z" fill="black"/>
<path d="M90.7808 95H86.5586V99.2222H90.7808V95Z" fill="black"/>
<path d="M90.7808 99.2188H86.5586V103.441H90.7808V99.2188Z" fill="black"/>
<path d="M90.7808 103.441H86.5586V107.664H90.7808V103.441Z" fill="black"/>
<path d="M90.7808 107.664H86.5586V111.886H90.7808V107.664Z" fill="black"/>
<path d="M90.7808 111.887H86.5586V116.109H90.7808V111.887Z" fill="black"/>
<path d="M90.7808 116.109H86.5586V120.332H90.7808V116.109Z" fill="black"/>
<path d="M90.7808 120.332H86.5586V124.554H90.7808V120.332Z" fill="black"/>
<path d="M95.0035 35.8867H90.7812V40.1089H95.0035V35.8867Z" fill="black"/>
<path d="M95.0035 40.1094H90.7812V44.3316H95.0035V40.1094Z" fill="black"/>
<path d="M95.0035 44.332H90.7812V48.5543H95.0035V44.332Z" fill="black"/>
<path d="M95.0035 52.7773H90.7812V56.9996H95.0035V52.7773Z" fill="black"/>
<path d="M95.0035 57H90.7812V61.2222H95.0035V57Z" fill="black"/>
<path d="M95.0035 69.6641H90.7812V73.8863H95.0035V69.6641Z" fill="black"/>
<path d="M95.0035 78.1094H90.7812V82.3316H95.0035V78.1094Z" fill="black"/>
<path d="M95.0035 86.5547H90.7812V90.7769H95.0035V86.5547Z" fill="black"/>
<path d="M95.0035 103.441H90.7812V107.664H95.0035V103.441Z" fill="black"/>
<path d="M95.0035 107.664H90.7812V111.886H95.0035V107.664Z" fill="black"/>
<path d="M95.0035 116.109H90.7812V120.332H95.0035V116.109Z" fill="black"/>
<path d="M95.0035 120.332H90.7812V124.554H95.0035V120.332Z" fill="black"/>
<path d="M99.2222 35.8867H95V40.1089H99.2222V35.8867Z" fill="black"/>
<path d="M99.2222 40.1094H95V44.3316H99.2222V40.1094Z" fill="black"/>
<path d="M99.2222 44.332H95V48.5543H99.2222V44.332Z" fill="black"/>
<path d="M99.2222 65.4414H95V69.6636H99.2222V65.4414Z" fill="black"/>
<path d="M99.2222 69.6641H95V73.8863H99.2222V69.6641Z" fill="black"/>
<path d="M99.2222 78.1094H95V82.3316H99.2222V78.1094Z" fill="black"/>
<path d="M99.2222 82.332H95V86.5543H99.2222V82.332Z" fill="black"/>
<path d="M99.2222 86.5547H95V90.7769H99.2222V86.5547Z" fill="black"/>
<path d="M99.2222 95H95V99.2222H99.2222V95Z" fill="black"/>
<path d="M99.2222 103.441H95V107.664H99.2222V103.441Z" fill="black"/>
<path d="M103.449 35.8867H99.2266V40.1089H103.449V35.8867Z" fill="black"/>
<path d="M103.449 44.332H99.2266V48.5543H103.449V44.332Z" fill="black"/>
<path d="M103.449 61.2188H99.2266V65.441H103.449V61.2188Z" fill="black"/>
<path d="M103.449 82.332H99.2266V86.5543H103.449V82.332Z" fill="black"/>
<path d="M103.449 86.5547H99.2266V90.7769H103.449V86.5547Z" fill="black"/>
<path d="M103.449 103.441H99.2266V107.664H103.449V103.441Z" fill="black"/>
<path d="M103.449 107.664H99.2266V111.886H103.449V107.664Z" fill="black"/>
<path d="M103.449 120.332H99.2266V124.554H103.449V120.332Z" fill="black"/>
<path d="M107.668 35.8867H103.445V40.1089H107.668V35.8867Z" fill="black"/>
<path d="M107.668 40.1094H103.445V44.3316H107.668V40.1094Z" fill="black"/>
<path d="M107.668 48.5547H103.445V52.7769H107.668V48.5547Z" fill="black"/>
<path d="M107.668 61.2188H103.445V65.441H107.668V61.2188Z" fill="black"/>
<path d="M107.668 65.4414H103.445V69.6636H107.668V65.4414Z" fill="black"/>
<path d="M107.668 78.1094H103.445V82.3316H107.668V78.1094Z" fill="black"/>
<path d="M107.668 86.5547H103.445V90.7769H107.668V86.5547Z" fill="black"/>
<path d="M107.668 90.7773H103.445V94.9996H107.668V90.7773Z" fill="black"/>
<path d="M107.668 95H103.445V99.2222H107.668V95Z" fill="black"/>
<path d="M107.668 99.2188H103.445V103.441H107.668V99.2188Z" fill="black"/>
<path d="M107.668 103.441H103.445V107.664H107.668V103.441Z" fill="black"/>
<path d="M107.668 107.664H103.445V111.886H107.668V107.664Z" fill="black"/>
<path d="M107.668 111.887H103.445V116.109H107.668V111.887Z" fill="black"/>
<path d="M107.668 120.332H103.445V124.554H107.668V120.332Z" fill="black"/>
<path d="M111.89 35.8867H107.668V40.1089H111.89V35.8867Z" fill="black"/>
<path d="M111.89 40.1094H107.668V44.3316H111.89V40.1094Z" fill="black"/>
<path d="M111.89 48.5547H107.668V52.7769H111.89V48.5547Z" fill="black"/>
<path d="M111.89 52.7773H107.668V56.9996H111.89V52.7773Z" fill="black"/>
<path d="M111.89 65.4414H107.668V69.6636H111.89V65.4414Z" fill="black"/>
<path d="M111.89 69.6641H107.668V73.8863H111.89V69.6641Z" fill="black"/>
<path d="M111.89 73.8867H107.668V78.1089H111.89V73.8867Z" fill="black"/>
<path d="M111.89 82.332H107.668V86.5543H111.89V82.332Z" fill="black"/>
<path d="M111.89 86.5547H107.668V90.7769H111.89V86.5547Z" fill="black"/>
<path d="M111.89 90.7773H107.668V94.9996H111.89V90.7773Z" fill="black"/>
<path d="M111.89 99.2188H107.668V103.441H111.89V99.2188Z" fill="black"/>
<path d="M111.89 111.887H107.668V116.109H111.89V111.887Z" fill="black"/>
<path d="M116.117 35.8867H111.895V40.1089H116.117V35.8867Z" fill="black"/>
<path d="M116.117 48.5547H111.895V52.7769H116.117V48.5547Z" fill="black"/>
<path d="M116.117 57H111.895V61.2222H116.117V57Z" fill="black"/>
<path d="M116.117 61.2188H111.895V65.441H116.117V61.2188Z" fill="black"/>
<path d="M116.117 73.8867H111.895V78.1089H116.117V73.8867Z" fill="black"/>
<path d="M116.117 82.332H111.895V86.5543H116.117V82.332Z" fill="black"/>
<path d="M116.117 86.5547H111.895V90.7769H116.117V86.5547Z" fill="black"/>
<path d="M116.117 90.7773H111.895V94.9996H116.117V90.7773Z" fill="black"/>
<path d="M116.117 95H111.895V99.2222H116.117V95Z" fill="black"/>
<path d="M116.117 99.2188H111.895V103.441H116.117V99.2188Z" fill="black"/>
<path d="M116.117 103.441H111.895V107.664H116.117V103.441Z" fill="black"/>
<path d="M116.117 111.887H111.895V116.109H116.117V111.887Z" fill="black"/>
<path d="M116.117 116.109H111.895V120.332H116.117V116.109Z" fill="black"/>
<path d="M120.336 35.8867H116.113V40.1089H120.336V35.8867Z" fill="black"/>
<path d="M120.336 40.1094H116.113V44.3316H120.336V40.1094Z" fill="black"/>
<path d="M120.336 44.332H116.113V48.5543H120.336V44.332Z" fill="black"/>
<path d="M120.336 52.7773H116.113V56.9996H120.336V52.7773Z" fill="black"/>
<path d="M120.336 61.2188H116.113V65.441H120.336V61.2188Z" fill="black"/>
<path d="M120.336 69.6641H116.113V73.8863H120.336V69.6641Z" fill="black"/>
<path d="M120.336 78.1094H116.113V82.3316H120.336V78.1094Z" fill="black"/>
<path d="M120.336 90.7773H116.113V94.9996H120.336V90.7773Z" fill="black"/>
<path d="M120.336 95H116.113V99.2222H120.336V95Z" fill="black"/>
<path d="M120.336 103.441H116.113V107.664H120.336V103.441Z" fill="black"/>
<path d="M120.336 107.664H116.113V111.886H120.336V107.664Z" fill="black"/>
<path d="M120.336 116.109H116.113V120.332H120.336V116.109Z" fill="black"/>
<path d="M124.558 44.332H120.336V48.5543H124.558V44.332Z" fill="black"/>
<path d="M124.558 61.2188H120.336V65.441H124.558V61.2188Z" fill="black"/>
<path d="M124.558 73.8867H120.336V78.1089H124.558V73.8867Z" fill="black"/>
<path d="M124.558 82.332H120.336V86.5543H124.558V82.332Z" fill="black"/>
<path d="M124.558 95H120.336V99.2222H124.558V95Z" fill="black"/>
<path d="M124.558 103.441H120.336V107.664H124.558V103.441Z" fill="black"/>
<path d="M124.558 111.887H120.336V116.109H124.558V111.887Z" fill="black"/>
<path d="M6.3355 2.10938H2.11328V6.3316H6.3355V2.10938Z" fill="black"/>
<path d="M6.3355 6.33203H2.11328V10.5543H6.3355V6.33203Z" fill="black"/>
<path d="M6.3355 10.5547H2.11328V14.7769H6.3355V10.5547Z" fill="black"/>
<path d="M6.3355 14.7773H2.11328V18.9996H6.3355V14.7773Z" fill="black"/>
<path d="M6.3355 19H2.11328V23.2222H6.3355V19Z" fill="black"/>
<path d="M6.3355 23.2188H2.11328V27.441H6.3355V23.2188Z" fill="black"/>
<path d="M6.3355 27.4414H2.11328V31.6636H6.3355V27.4414Z" fill="black"/>
<path d="M10.5582 2.10938H6.33594V6.3316H10.5582V2.10938Z" fill="black"/>
<path d="M10.5582 27.4414H6.33594V31.6636H10.5582V27.4414Z" fill="black"/>
<path d="M14.7769 2.10938H10.5547V6.3316H14.7769V2.10938Z" fill="black"/>
<path d="M14.7769 27.4414H10.5547V31.6636H14.7769V27.4414Z" fill="black"/>
<path d="M19.0035 2.10938H14.7812V6.3316H19.0035V2.10938Z" fill="black"/>
<path d="M19.0035 27.4414H14.7812V31.6636H19.0035V27.4414Z" fill="black"/>
<path d="M23.2222 2.10938H19V6.3316H23.2222V2.10938Z" fill="black"/>
<path d="M23.2222 27.4414H19V31.6636H23.2222V27.4414Z" fill="black"/>
<path d="M27.4449 2.10938H23.2227V6.3316H27.4449V2.10938Z" fill="black"/>
<path d="M27.4449 27.4414H23.2227V31.6636H27.4449V27.4414Z" fill="black"/>
<path d="M31.6714 2.10938H27.4492V6.3316H31.6714V2.10938Z" fill="black"/>
<path d="M31.6714 6.33203H27.4492V10.5543H31.6714V6.33203Z" fill="black"/>
<path d="M31.6714 10.5547H27.4492V14.7769H31.6714V10.5547Z" fill="black"/>
<path d="M31.6714 14.7773H27.4492V18.9996H31.6714V14.7773Z" fill="black"/>
<path d="M31.6714 19H27.4492V23.2222H31.6714V19Z" fill="black"/>
<path d="M31.6714 23.2188H27.4492V27.441H31.6714V23.2188Z" fill="black"/>
<path d="M31.6714 27.4414H27.4492V31.6636H31.6714V27.4414Z" fill="black"/>
<path d="M14.7769 10.5547H10.5547V14.7769H14.7769V10.5547Z" fill="black"/>
<path d="M14.7769 14.7773H10.5547V18.9996H14.7769V14.7773Z" fill="black"/>
<path d="M14.7769 19H10.5547V23.2222H14.7769V19Z" fill="black"/>
<path d="M18.9996 10.5547H14.7773V14.7769H18.9996V10.5547Z" fill="black"/>
<path d="M18.9996 14.7773H14.7773V18.9996H18.9996V14.7773Z" fill="black"/>
<path d="M18.9996 19H14.7773V23.2222H18.9996V19Z" fill="black"/>
<path d="M23.2183 10.5547H18.9961V14.7769H23.2183V10.5547Z" fill="black"/>
<path d="M23.2183 14.7773H18.9961V18.9996H23.2183V14.7773Z" fill="black"/>
<path d="M23.2183 19H18.9961V23.2222H23.2183V19Z" fill="black"/>
<path d="M99.2222 2.10938H95V6.3316H99.2222V2.10938Z" fill="black"/>
<path d="M99.2222 6.33203H95V10.5543H99.2222V6.33203Z" fill="black"/>
<path d="M99.2222 10.5547H95V14.7769H99.2222V10.5547Z" fill="black"/>
<path d="M99.2222 14.7773H95V18.9996H99.2222V14.7773Z" fill="black"/>
<path d="M99.2222 19H95V23.2222H99.2222V19Z" fill="black"/>
<path d="M99.2222 23.2188H95V27.441H99.2222V23.2188Z" fill="black"/>
<path d="M99.2222 27.4414H95V31.6636H99.2222V27.4414Z" fill="black"/>
<path d="M103.445 2.10938H99.2227V6.3316H103.445V2.10938Z" fill="black"/>
<path d="M103.445 27.4414H99.2227V31.6636H103.445V27.4414Z" fill="black"/>
<path d="M107.664 2.10938H103.441V6.3316H107.664V2.10938Z" fill="black"/>
<path d="M107.664 27.4414H103.441V31.6636H107.664V27.4414Z" fill="black"/>
<path d="M111.89 2.10938H107.668V6.3316H111.89V2.10938Z" fill="black"/>
<path d="M111.89 27.4414H107.668V31.6636H111.89V27.4414Z" fill="black"/>
<path d="M116.109 2.10938H111.887V6.3316H116.109V2.10938Z" fill="black"/>
<path d="M116.109 27.4414H111.887V31.6636H116.109V27.4414Z" fill="black"/>
<path d="M120.332 2.10938H116.109V6.3316H120.332V2.10938Z" fill="black"/>
<path d="M120.332 27.4414H116.109V31.6636H120.332V27.4414Z" fill="black"/>
<path d="M124.558 2.10938H120.336V6.3316H124.558V2.10938Z" fill="black"/>
<path d="M124.558 6.33203H120.336V10.5543H124.558V6.33203Z" fill="black"/>
<path d="M124.558 10.5547H120.336V14.7769H124.558V10.5547Z" fill="black"/>
<path d="M124.558 14.7773H120.336V18.9996H124.558V14.7773Z" fill="black"/>
<path d="M124.558 19H120.336V23.2222H124.558V19Z" fill="black"/>
<path d="M124.558 23.2188H120.336V27.441H124.558V23.2188Z" fill="black"/>
<path d="M124.558 27.4414H120.336V31.6636H124.558V27.4414Z" fill="black"/>
<path d="M107.664 10.5547H103.441V14.7769H107.664V10.5547Z" fill="black"/>
<path d="M107.664 14.7773H103.441V18.9996H107.664V14.7773Z" fill="black"/>
<path d="M107.664 19H103.441V23.2222H107.664V19Z" fill="black"/>
<path d="M111.886 10.5547H107.664V14.7769H111.886V10.5547Z" fill="black"/>
<path d="M111.886 14.7773H107.664V18.9996H111.886V14.7773Z" fill="black"/>
<path d="M111.886 19H107.664V23.2222H111.886V19Z" fill="black"/>
<path d="M116.105 10.5547H111.883V14.7769H116.105V10.5547Z" fill="black"/>
<path d="M116.105 14.7773H111.883V18.9996H116.105V14.7773Z" fill="black"/>
<path d="M116.105 19H111.883V23.2222H116.105V19Z" fill="black"/>
<path d="M6.3355 95H2.11328V99.2222H6.3355V95Z" fill="black"/>
<path d="M6.3355 99.2227H2.11328V103.445H6.3355V99.2227Z" fill="black"/>
<path d="M6.3355 103.445H2.11328V107.668H6.3355V103.445Z" fill="black"/>
<path d="M6.3355 107.668H2.11328V111.89H6.3355V107.668Z" fill="black"/>
<path d="M6.3355 111.891H2.11328V116.113H6.3355V111.891Z" fill="black"/>
<path d="M6.3355 116.109H2.11328V120.332H6.3355V116.109Z" fill="black"/>
<path d="M6.3355 120.332H2.11328V124.554H6.3355V120.332Z" fill="black"/>
<path d="M10.5582 95H6.33594V99.2222H10.5582V95Z" fill="black"/>
<path d="M10.5582 120.332H6.33594V124.554H10.5582V120.332Z" fill="black"/>
<path d="M14.7769 95H10.5547V99.2222H14.7769V95Z" fill="black"/>
<path d="M14.7769 120.332H10.5547V124.554H14.7769V120.332Z" fill="black"/>
<path d="M19.0035 95H14.7812V99.2222H19.0035V95Z" fill="black"/>
<path d="M19.0035 120.332H14.7812V124.554H19.0035V120.332Z" fill="black"/>
<path d="M23.2222 95H19V99.2222H23.2222V95Z" fill="black"/>
<path d="M23.2222 120.332H19V124.554H23.2222V120.332Z" fill="black"/>
<path d="M27.4449 95H23.2227V99.2222H27.4449V95Z" fill="black"/>
<path d="M27.4449 120.332H23.2227V124.554H27.4449V120.332Z" fill="black"/>
<path d="M31.6714 95H27.4492V99.2222H31.6714V95Z" fill="black"/>
<path d="M31.6714 99.2227H27.4492V103.445H31.6714V99.2227Z" fill="black"/>
<path d="M31.6714 103.445H27.4492V107.668H31.6714V103.445Z" fill="black"/>
<path d="M31.6714 107.668H27.4492V111.89H31.6714V107.668Z" fill="black"/>
<path d="M31.6714 111.891H27.4492V116.113H31.6714V111.891Z" fill="black"/>
<path d="M31.6714 116.109H27.4492V120.332H31.6714V116.109Z" fill="black"/>
<path d="M31.6714 120.332H27.4492V124.554H31.6714V120.332Z" fill="black"/>
<path d="M14.7769 103.445H10.5547V107.668H14.7769V103.445Z" fill="black"/>
<path d="M14.7769 107.668H10.5547V111.89H14.7769V107.668Z" fill="black"/>
<path d="M14.7769 111.891H10.5547V116.113H14.7769V111.891Z" fill="black"/>
<path d="M18.9996 103.445H14.7773V107.668H18.9996V103.445Z" fill="black"/>
<path d="M18.9996 107.668H14.7773V111.89H18.9996V107.668Z" fill="black"/>
<path d="M18.9996 111.891H14.7773V116.113H18.9996V111.891Z" fill="black"/>
<path d="M23.2183 103.445H18.9961V107.668H23.2183V103.445Z" fill="black"/>
<path d="M23.2183 107.668H18.9961V111.89H23.2183V107.668Z" fill="black"/>
<path d="M23.2183 111.891H18.9961V116.113H23.2183V111.891Z" fill="black"/>
</svg>
